<?xml version="1.0" encoding="UTF-8" standalone="no"?>
<!DOCTYPE svg PUBLIC "-//W3C//DTD SVG 1.1//EN"
 "http://www.w3.org/Graphics/SVG/1.1/DTD/svg11.dtd">
<!-- Generated by graphviz version 2.43.0 (0)
 -->
<!-- Title: %3 Pages: 1 -->
<svg width="816pt" height="447pt"
 viewBox="0.00 0.00 816.00 447.00" xmlns="http://www.w3.org/2000/svg" xmlns:xlink="http://www.w3.org/1999/xlink">
<g id="graph0" class="graph" transform="scale(1 1) rotate(0) translate(4 443)">
<title>%3</title>
<polygon fill="white" stroke="transparent" points="-4,4 -4,-443 812,-443 812,4 -4,4"/>
<!-- 1 -->
<g id="node1" class="node">
<title>1</title>
<polygon fill="#ff0000" stroke="#ff0000" points="277.5,-439 222.5,-439 222.5,-398 277.5,-398 277.5,-439"/>
<text text-anchor="middle" x="250" y="-427" font-family="Arial" font-size="10.00" fill="#ffffff">main</text>
<text text-anchor="middle" x="250" y="-416" font-family="Arial" font-size="10.00" fill="#ffffff">100.00%</text>
<text text-anchor="middle" x="250" y="-405" font-family="Arial" font-size="10.00" fill="#ffffff">(0.00%)</text>
</g>
<!-- 5 -->
<g id="node2" class="node">
<title>5</title>
<polygon fill="#0ab50f" stroke="#0ab50f" points="533,-358 315,-358 315,-306 533,-306 533,-358"/>
<text text-anchor="middle" x="424" y="-346" font-family="Arial" font-size="10.00" fill="#ffffff">Patricia_trie::TTrie::insert(TStr, unsigned long)</text>
<text text-anchor="middle" x="424" y="-335" font-family="Arial" font-size="10.00" fill="#ffffff">49.26%</text>
<text text-anchor="middle" x="424" y="-324" font-family="Arial" font-size="10.00" fill="#ffffff">(0.00%)</text>
<text text-anchor="middle" x="424" y="-313" font-family="Arial" font-size="10.00" fill="#ffffff">1000×</text>
</g>
<!-- 1&#45;&gt;5 -->
<g id="edge1" class="edge">
<title>1&#45;&gt;5</title>
<path fill="none" stroke="#0ab50f" stroke-width="1.97" d="M277.57,-404.11C301.18,-392.65 335.97,-375.75 365.72,-361.3"/>
<polygon fill="#0ab50f" stroke="#0ab50f" stroke-width="1.97" points="367.15,-363.33 372.37,-358.07 365.01,-358.92 367.15,-363.33"/>
<text text-anchor="middle" x="370" y="-381" font-family="Arial" font-size="10.00" fill="#0ab50f">49.26%</text>
<text text-anchor="middle" x="370" y="-370" font-family="Arial" font-size="10.00" fill="#0ab50f">1000×</text>
</g>
<!-- 7 -->
<g id="node3" class="node">
<title>7</title>
<polygon fill="#0c958e" stroke="#0c958e" points="326,-236 174,-236 174,-184 326,-184 326,-236"/>
<text text-anchor="middle" x="250" y="-224" font-family="Arial" font-size="10.00" fill="#ffffff">Patricia_trie::TTrie::erase(TStr)</text>
<text text-anchor="middle" x="250" y="-213" font-family="Arial" font-size="10.00" fill="#ffffff">26.31%</text>
<text text-anchor="middle" x="250" y="-202" font-family="Arial" font-size="10.00" fill="#ffffff">(0.00%)</text>
<text text-anchor="middle" x="250" y="-191" font-family="Arial" font-size="10.00" fill="#ffffff">1000×</text>
</g>
<!-- 1&#45;&gt;7 -->
<g id="edge2" class="edge">
<title>1&#45;&gt;7</title>
<path fill="none" stroke="#0c958e" stroke-width="1.05" d="M250,-397.7C250,-361.49 250,-284.4 250,-241.47"/>
<polygon fill="#0c958e" stroke="#0c958e" stroke-width="1.05" points="251.79,-241.25 250,-236.15 248.22,-241.25 251.79,-241.25"/>
<text text-anchor="middle" x="267" y="-335" font-family="Arial" font-size="10.00" fill="#0c958e">26.31%</text>
<text text-anchor="middle" x="267" y="-324" font-family="Arial" font-size="10.00" fill="#0c958e">1000×</text>
</g>
<!-- 9 -->
<g id="node4" class="node">
<title>9</title>
<polygon fill="#0c9093" stroke="#0c9093" points="221.5,-297 64.5,-297 64.5,-245 221.5,-245 221.5,-297"/>
<text text-anchor="middle" x="143" y="-285" font-family="Arial" font-size="10.00" fill="#ffffff">Patricia_trie::TTrie::search(TStr)</text>
<text text-anchor="middle" x="143" y="-274" font-family="Arial" font-size="10.00" fill="#ffffff">24.43%</text>
<text text-anchor="middle" x="143" y="-263" font-family="Arial" font-size="10.00" fill="#ffffff">(0.00%)</text>
<text text-anchor="middle" x="143" y="-252" font-family="Arial" font-size="10.00" fill="#ffffff">1000×</text>
</g>
<!-- 1&#45;&gt;9 -->
<g id="edge3" class="edge">
<title>1&#45;&gt;9</title>
<path fill="none" stroke="#0c9093" stroke-width="0.98" d="M222.13,-400.7C217.44,-397.17 212.85,-393.23 209,-389 185.35,-363.02 166.68,-327.11 155.32,-301.95"/>
<polygon fill="#0c9093" stroke="#0c9093" stroke-width="0.98" points="156.85,-301.16 153.29,-297.38 153.71,-302.55 156.85,-301.16"/>
<text text-anchor="middle" x="226" y="-381" font-family="Arial" font-size="10.00" fill="#0c9093">24.43%</text>
<text text-anchor="middle" x="226" y="-370" font-family="Arial" font-size="10.00" fill="#0c9093">1000×</text>
</g>
<!-- 6 -->
<g id="node8" class="node">
<title>6</title>
<polygon fill="#0ab50f" stroke="#0ab50f" points="553.5,-236 338.5,-236 338.5,-184 553.5,-184 553.5,-236"/>
<text text-anchor="middle" x="446" y="-224" font-family="Arial" font-size="10.00" fill="#ffffff">Patricia_trie::TTrie::add(Patricia_trie::TNode*)</text>
<text text-anchor="middle" x="446" y="-213" font-family="Arial" font-size="10.00" fill="#ffffff">49.26%</text>
<text text-anchor="middle" x="446" y="-202" font-family="Arial" font-size="10.00" fill="#ffffff">(0.00%)</text>
<text text-anchor="middle" x="446" y="-191" font-family="Arial" font-size="10.00" fill="#ffffff">999×</text>
</g>
<!-- 5&#45;&gt;6 -->
<g id="edge6" class="edge">
<title>5&#45;&gt;6</title>
<path fill="none" stroke="#0ab50f" stroke-width="1.97" d="M428.61,-305.84C431.96,-287.6 436.51,-262.79 440.11,-243.12"/>
<polygon fill="#0ab50f" stroke="#0ab50f" stroke-width="1.97" points="442.54,-243.45 441.39,-236.12 437.72,-242.57 442.54,-243.45"/>
<text text-anchor="middle" x="456" y="-274" font-family="Arial" font-size="10.00" fill="#0ab50f">49.26%</text>
<text text-anchor="middle" x="456" y="-263" font-family="Arial" font-size="10.00" fill="#0ab50f">999×</text>
</g>
<!-- 2 -->
<g id="node5" class="node">
<title>2</title>
<polygon fill="#0fb709" stroke="#0fb709" points="242,-144 0,-144 0,-92 242,-92 242,-144"/>
<text text-anchor="middle" x="121" y="-132" font-family="Arial" font-size="10.00" fill="#ffffff">Patricia_trie::TTrie::find_node(Patricia_trie::TNode*)</text>
<text text-anchor="middle" x="121" y="-121" font-family="Arial" font-size="10.00" fill="#ffffff">50.84%</text>
<text text-anchor="middle" x="121" y="-110" font-family="Arial" font-size="10.00" fill="#ffffff">(0.00%)</text>
<text text-anchor="middle" x="121" y="-99" font-family="Arial" font-size="10.00" fill="#ffffff">2081×</text>
</g>
<!-- 7&#45;&gt;2 -->
<g id="edge11" class="edge">
<title>7&#45;&gt;2</title>
<path fill="none" stroke="#0d1575" stroke-width="0.5" d="M214.07,-183.93C197.29,-172.23 177.29,-158.27 160.14,-146.3"/>
<polygon fill="#0d1575" stroke="#0d1575" stroke-width="0.5" points="160.76,-145.25 157.19,-144.25 159.36,-147.26 160.76,-145.25"/>
<text text-anchor="middle" x="215" y="-167" font-family="Arial" font-size="10.00" fill="#0d1575">2.00%</text>
<text text-anchor="middle" x="215" y="-156" font-family="Arial" font-size="10.00" fill="#0d1575">82×</text>
</g>
<!-- 10 -->
<g id="node10" class="node">
<title>10</title>
<polygon fill="#0c8f92" stroke="#0c8f92" points="428.5,-144 251.5,-144 251.5,-92 428.5,-92 428.5,-144"/>
<text text-anchor="middle" x="340" y="-132" font-family="Arial" font-size="10.00" fill="#ffffff">Patricia_trie::TTrie::find_PRC(TStr&amp;)</text>
<text text-anchor="middle" x="340" y="-121" font-family="Arial" font-size="10.00" fill="#ffffff">24.31%</text>
<text text-anchor="middle" x="340" y="-110" font-family="Arial" font-size="10.00" fill="#ffffff">(0.00%)</text>
<text text-anchor="middle" x="340" y="-99" font-family="Arial" font-size="10.00" fill="#ffffff">1000×</text>
</g>
<!-- 7&#45;&gt;10 -->
<g id="edge12" class="edge">
<title>7&#45;&gt;10</title>
<path fill="none" stroke="#0c8f92" stroke-width="0.97" d="M275.07,-183.93C286.29,-172.71 299.58,-159.42 311.2,-147.8"/>
<polygon fill="#0c8f92" stroke="#0c8f92" stroke-width="0.97" points="312.5,-148.93 314.75,-144.25 310.07,-146.5 312.5,-148.93"/>
<text text-anchor="middle" x="323" y="-167" font-family="Arial" font-size="10.00" fill="#0c8f92">24.31%</text>
<text text-anchor="middle" x="323" y="-156" font-family="Arial" font-size="10.00" fill="#0c8f92">1000×</text>
</g>
<!-- 9&#45;&gt;2 -->
<g id="edge15" class="edge">
<title>9&#45;&gt;2</title>
<path fill="none" stroke="#0c9093" stroke-width="0.98" d="M136.74,-244.81C136.11,-241.85 135.51,-238.87 135,-236 129.81,-206.66 125.99,-172.84 123.67,-149.13"/>
<polygon fill="#0c9093" stroke="#0c9093" stroke-width="0.98" points="125.37,-148.94 123.19,-144.23 121.96,-149.27 125.37,-148.94"/>
<text text-anchor="middle" x="152" y="-213" font-family="Arial" font-size="10.00" fill="#0c9093">24.43%</text>
<text text-anchor="middle" x="152" y="-202" font-family="Arial" font-size="10.00" fill="#0c9093">1000×</text>
</g>
<!-- 3 -->
<g id="node6" class="node">
<title>3</title>
<polygon fill="#0ab60a" stroke="#0ab60a" points="413.5,-52 326.5,-52 326.5,0 413.5,0 413.5,-52"/>
<text text-anchor="middle" x="370" y="-40" font-family="Arial" font-size="10.00" fill="#ffffff">get_bit(char, int)</text>
<text text-anchor="middle" x="370" y="-29" font-family="Arial" font-size="10.00" fill="#ffffff">50.00%</text>
<text text-anchor="middle" x="370" y="-18" font-family="Arial" font-size="10.00" fill="#ffffff">(50.00%)</text>
<text text-anchor="middle" x="370" y="-7" font-family="Arial" font-size="10.00" fill="#ffffff">431090×</text>
</g>
<!-- 2&#45;&gt;3 -->
<g id="edge4" class="edge">
<title>2&#45;&gt;3</title>
<path fill="none" stroke="#0c9492" stroke-width="1.02" d="M176.75,-91.87C200.34,-81.66 228.27,-70.15 254,-61 275.87,-53.22 300.51,-45.81 321.43,-39.91"/>
<polygon fill="#0c9492" stroke="#0c9492" stroke-width="1.02" points="322.04,-41.56 326.38,-38.52 321.1,-38.19 322.04,-41.56"/>
<text text-anchor="middle" x="273" y="-75" font-family="Arial" font-size="10.00" fill="#0c9492">25.42%</text>
<text text-anchor="middle" x="273" y="-64" font-family="Arial" font-size="10.00" fill="#0c9492">219174×</text>
</g>
<!-- 4 -->
<g id="node7" class="node">
<title>4</title>
<polygon fill="#0ab60a" stroke="#0ab60a" points="615,-52 493,-52 493,0 615,0 615,-52"/>
<text text-anchor="middle" x="554" y="-40" font-family="Arial" font-size="10.00" fill="#ffffff">Patricia_trie::get_idx(int)</text>
<text text-anchor="middle" x="554" y="-29" font-family="Arial" font-size="10.00" fill="#ffffff">50.00%</text>
<text text-anchor="middle" x="554" y="-18" font-family="Arial" font-size="10.00" fill="#ffffff">(50.00%)</text>
<text text-anchor="middle" x="554" y="-7" font-family="Arial" font-size="10.00" fill="#ffffff">431090×</text>
</g>
<!-- 2&#45;&gt;4 -->
<g id="edge5" class="edge">
<title>2&#45;&gt;4</title>
<path fill="none" stroke="#0c9492" stroke-width="1.02" d="M242.01,-92.77C243.68,-92.51 245.35,-92.25 247,-92 285,-86.25 296.94,-96.3 333,-83 349.19,-77.03 349.01,-67.49 365,-61 387.14,-52.02 394.47,-56.16 418,-52 440.75,-47.98 465.61,-43.45 487.78,-39.36"/>
<polygon fill="#0c9492" stroke="#0c9492" stroke-width="1.02" points="488.16,-41.07 492.76,-38.44 487.53,-37.63 488.16,-41.07"/>
<text text-anchor="middle" x="384" y="-75" font-family="Arial" font-size="10.00" fill="#0c9492">25.42%</text>
<text text-anchor="middle" x="384" y="-64" font-family="Arial" font-size="10.00" fill="#0c9492">219174×</text>
</g>
<!-- 6&#45;&gt;2 -->
<g id="edge7" class="edge">
<title>6&#45;&gt;2</title>
<path fill="none" stroke="#0c8f93" stroke-width="0.98" d="M406.91,-183.89C387.29,-172.52 362.71,-160.07 339,-153 299.63,-141.26 287.64,-150.01 247,-144 246.9,-143.98 246.79,-143.97 246.69,-143.95"/>
<polygon fill="#0c8f93" stroke="#0c8f93" stroke-width="0.98" points="247.11,-142.28 242,-143.25 246.59,-145.67 247.11,-142.28"/>
<text text-anchor="middle" x="407" y="-167" font-family="Arial" font-size="10.00" fill="#0c8f93">24.41%</text>
<text text-anchor="middle" x="407" y="-156" font-family="Arial" font-size="10.00" fill="#0c8f93">999×</text>
</g>
<!-- 6&#45;&gt;3 -->
<g id="edge8" class="edge">
<title>6&#45;&gt;3</title>
<path fill="none" stroke="#0d0d73" stroke-width="0.5" d="M447.4,-183.96C448.98,-147.12 449.86,-80.58 437,-61 432.05,-53.46 424.89,-47.52 417.07,-42.85"/>
<polygon fill="#0d0d73" stroke="#0d0d73" stroke-width="0.5" points="417.33,-41.59 413.69,-40.93 416.13,-43.72 417.33,-41.59"/>
<text text-anchor="middle" x="462" y="-121" font-family="Arial" font-size="10.00" fill="#0d0d73">0.12%</text>
<text text-anchor="middle" x="462" y="-110" font-family="Arial" font-size="10.00" fill="#0d0d73">998×</text>
</g>
<!-- 6&#45;&gt;4 -->
<g id="edge9" class="edge">
<title>6&#45;&gt;4</title>
<path fill="none" stroke="#0d0d73" stroke-width="0.5" d="M553.87,-201.79C637.24,-193.71 742.87,-177.12 770,-144 784.65,-126.12 783.79,-110.55 770,-92 751.8,-67.51 675.72,-48.75 618.97,-37.82"/>
<polygon fill="#0d0d73" stroke="#0d0d73" stroke-width="0.5" points="618.93,-36.57 615.26,-37.11 618.47,-38.97 618.93,-36.57"/>
<text text-anchor="middle" x="794" y="-121" font-family="Arial" font-size="10.00" fill="#0d0d73">0.12%</text>
<text text-anchor="middle" x="794" y="-110" font-family="Arial" font-size="10.00" fill="#0d0d73">998×</text>
</g>
<!-- 8 -->
<g id="node9" class="node">
<title>8</title>
<polygon fill="#0c9193" stroke="#0c9193" points="765,-144 483,-144 483,-92 765,-92 765,-144"/>
<text text-anchor="middle" x="624" y="-132" font-family="Arial" font-size="10.00" fill="#ffffff">Patricia_trie::TTrie::find_pair_for_insert(Patricia_trie::TNode*)</text>
<text text-anchor="middle" x="624" y="-121" font-family="Arial" font-size="10.00" fill="#ffffff">24.62%</text>
<text text-anchor="middle" x="624" y="-110" font-family="Arial" font-size="10.00" fill="#ffffff">(0.00%)</text>
<text text-anchor="middle" x="624" y="-99" font-family="Arial" font-size="10.00" fill="#ffffff">998×</text>
</g>
<!-- 6&#45;&gt;8 -->
<g id="edge10" class="edge">
<title>6&#45;&gt;8</title>
<path fill="none" stroke="#0c9193" stroke-width="0.98" d="M495.58,-183.93C518.63,-172.28 546.1,-158.39 569.71,-146.45"/>
<polygon fill="#0c9193" stroke="#0c9193" stroke-width="0.98" points="570.7,-147.91 574.37,-144.09 569.12,-144.79 570.7,-147.91"/>
<text text-anchor="middle" x="573" y="-167" font-family="Arial" font-size="10.00" fill="#0c9193">24.62%</text>
<text text-anchor="middle" x="573" y="-156" font-family="Arial" font-size="10.00" fill="#0c9193">998×</text>
</g>
<!-- 8&#45;&gt;3 -->
<g id="edge13" class="edge">
<title>8&#45;&gt;3</title>
<path fill="none" stroke="#0d4783" stroke-width="0.5" d="M553.25,-91.93C509.87,-76.56 455.54,-57.31 417.33,-43.77"/>
<polygon fill="#0d4783" stroke="#0d4783" stroke-width="0.5" points="417.39,-42.49 413.68,-42.48 416.57,-44.8 417.39,-42.49"/>
<text text-anchor="middle" x="546" y="-75" font-family="Arial" font-size="10.00" fill="#0d4783">12.31%</text>
<text text-anchor="middle" x="546" y="-64" font-family="Arial" font-size="10.00" fill="#0d4783">106136×</text>
</g>
<!-- 8&#45;&gt;4 -->
<g id="edge14" class="edge">
<title>8&#45;&gt;4</title>
<path fill="none" stroke="#0d4783" stroke-width="0.5" d="M604.5,-91.93C595.63,-80.52 585.08,-66.96 575.93,-55.2"/>
<polygon fill="#0d4783" stroke="#0d4783" stroke-width="0.5" points="576.75,-54.26 573.64,-52.25 574.82,-55.76 576.75,-54.26"/>
<text text-anchor="middle" x="616" y="-75" font-family="Arial" font-size="10.00" fill="#0d4783">12.31%</text>
<text text-anchor="middle" x="616" y="-64" font-family="Arial" font-size="10.00" fill="#0d4783">106136×</text>
</g>
<!-- 10&#45;&gt;3 -->
<g id="edge16" class="edge">
<title>10&#45;&gt;3</title>
<path fill="none" stroke="#0d4682" stroke-width="0.5" d="M302.62,-91.66C300.42,-88.97 298.49,-86.08 297,-83 292.74,-74.2 291.74,-69.25 297,-61 303.13,-51.38 312.76,-44.44 323.05,-39.45"/>
<polygon fill="#0d4682" stroke="#0d4682" stroke-width="0.5" points="323.59,-40.55 326.25,-37.96 322.56,-38.32 323.59,-40.55"/>
<text text-anchor="middle" x="316" y="-75" font-family="Arial" font-size="10.00" fill="#0d4682">12.15%</text>
<text text-anchor="middle" x="316" y="-64" font-family="Arial" font-size="10.00" fill="#0d4682">104782×</text>
</g>
<!-- 10&#45;&gt;4 -->
<g id="edge17" class="edge">
<title>10&#45;&gt;4</title>
<path fill="none" stroke="#0d4682" stroke-width="0.5" d="M386.45,-91.92C406.34,-81.67 430.01,-70.11 452,-61 463.9,-56.07 476.8,-51.33 489.29,-47.03"/>
<polygon fill="#0d4682" stroke="#0d4682" stroke-width="0.5" points="489.89,-48.12 492.8,-45.83 489.09,-45.8 489.89,-48.12"/>
<text text-anchor="middle" x="471" y="-75" font-family="Arial" font-size="10.00" fill="#0d4682">12.15%</text>
<text text-anchor="middle" x="471" y="-64" font-family="Arial" font-size="10.00" fill="#0d4682">104782×</text>
</g>
</g>
</svg>
